<?xml version="1.0" encoding="utf-8"?><svg xmlns="http://www.w3.org/2000/svg" xmlns:xlink="http://www.w3.org/1999/xlink"><symbol viewBox="-34 0 511 512" id="development" xmlns="http://www.w3.org/2000/svg"><path d="M325 268a7.5 7.5 0 00-7.5 7.5v179c0 6.895-5.605 12.5-12.5 12.5H28c-6.895 0-12.5-5.605-12.5-12.5v-357C15.5 90.605 21.105 85 28 85h65c4.14 0 7.5-3.355 7.5-7.5S97.14 70 93 70H28C12.836 70 .5 82.336.5 97.5v387C.5 499.664 12.836 512 28 512h277c15.164 0 27.5-12.336 27.5-27.5v-209a7.5 7.5 0 00-7.5-7.5zm-20 229H28c-6.895 0-12.5-5.605-12.5-12.5v-5.52c3.754 1.926 8 3.02 12.5 3.02h277c4.5 0 8.746-1.094 12.5-3.02v5.52c0 6.895-5.605 12.5-12.5 12.5zm0 0"/><path d="M88 100H43c-6.895 0-12.5 5.605-12.5 12.5v327c0 6.895 5.605 12.5 12.5 12.5h45c6.895 0 12.5-5.605 12.5-12.5v-327c0-6.895-5.605-12.5-12.5-12.5zm-2.5 337h-40v-18.5h15c4.14 0 7.5-3.355 7.5-7.5s-3.36-7.5-7.5-7.5h-15v-15h5c4.14 0 7.5-3.355 7.5-7.5s-3.36-7.5-7.5-7.5h-5v-15h5c4.14 0 7.5-3.355 7.5-7.5s-3.36-7.5-7.5-7.5h-5v-15h15c4.14 0 7.5-3.355 7.5-7.5s-3.36-7.5-7.5-7.5h-15v-15h5c4.14 0 7.5-3.355 7.5-7.5s-3.36-7.5-7.5-7.5h-5v-15h5c4.14 0 7.5-3.355 7.5-7.5s-3.36-7.5-7.5-7.5h-5v-15h15c4.14 0 7.5-3.355 7.5-7.5s-3.36-7.5-7.5-7.5h-15v-15h5c4.14 0 7.5-3.355 7.5-7.5s-3.36-7.5-7.5-7.5h-5v-15h5c4.14 0 7.5-3.355 7.5-7.5s-3.36-7.5-7.5-7.5h-5v-15h15c4.14 0 7.5-3.355 7.5-7.5s-3.36-7.5-7.5-7.5h-15V115h40zM128 333c-6.895 0-12.5 5.605-12.5 12.5v94c0 6.895 5.605 12.5 12.5 12.5h162c6.895 0 12.5-5.605 12.5-12.5v-94c0-6.895-5.605-12.5-12.5-12.5zm159.5 98.2l-64.004-38.7 64.004-38.7zm-157-77.4l64.004 38.7-64.004 38.7zm19.398-5.8h118.204L209 383.734zM209 401.266L268.102 437H149.898zm216.79-300.883h-2.45c-6.438 0-12.285-4.074-14.555-10.145a93.77 93.77 0 00-2.531-6.105c-2.707-5.957-1.473-13.016 3.078-17.567l1.734-1.73c6.512-6.516 6.512-17.117 0-23.633l-9.77-9.77a16.616 16.616 0 00-11.816-4.894 16.59 16.59 0 00-11.812 4.895l-1.734 1.734c-4.551 4.55-11.61 5.785-17.567 3.074a97.074 97.074 0 00-6.105-2.527c-6.067-2.27-10.145-8.117-10.145-14.555v-2.45c0-9.214-7.496-16.71-16.71-16.71h-13.813c-9.215 0-16.707 7.496-16.707 16.71v2.45c0 6.438-4.078 12.285-10.145 14.555a96.22 96.22 0 00-6.11 2.527c-5.956 2.711-13.015 1.477-17.562-3.074l-1.734-1.734c-6.516-6.516-17.117-6.512-23.633 0l-9.766 9.77c-6.515 6.515-6.515 17.116 0 23.632l1.735 1.734A15.182 15.182 0 01230.23 70H128a7.5 7.5 0 100 15h102.367a93.483 93.483 0 00-2.152 5.242c-2.27 6.067-8.117 10.145-14.555 10.145h-2.45c-9.214 0-16.71 7.496-16.71 16.707v13.812c0 9.215 7.496 16.711 16.71 16.711h2.45c6.438 0 12.285 4.074 14.555 10.145a98.617 98.617 0 002.531 6.11c2.707 5.952 1.473 13.01-3.074 17.562l-1.738 1.734c-6.512 6.516-6.512 17.113 0 23.633l9.77 9.765c6.515 6.516 17.116 6.516 23.632 0l1.73-1.734c4.551-4.55 11.61-5.785 17.567-3.074 2 .91 4.054 1.762 6.105 2.527 6.067 2.274 10.145 8.121 10.145 14.555v2.453c0 9.215 7.496 16.71 16.71 16.71h13.813c9.215 0 16.707-7.495 16.707-16.71v-2.453c0-6.434 4.078-12.281 10.145-14.55a98.206 98.206 0 006.11-2.532c5.956-2.711 13.015-1.477 17.562 3.074l1.734 1.734a16.6 16.6 0 0011.816 4.895c4.461 0 8.66-1.738 11.817-4.895l9.765-9.77c6.516-6.515 6.516-17.112 0-23.628l-1.734-1.734c-4.547-4.551-5.781-11.61-3.074-17.563a99.448 99.448 0 002.531-6.11c2.27-6.066 8.117-10.144 14.555-10.144h2.45c9.214 0 16.71-7.496 16.71-16.71v-13.813c0-9.215-7.496-16.711-16.71-16.711zm1.71 30.523c0 .942-.766 1.711-1.71 1.711h-2.45c-12.656 0-24.152 7.992-28.606 19.887a81.191 81.191 0 01-2.132 5.152c-5.286 11.617-2.825 25.434 6.12 34.383l1.735 1.734a1.71 1.71 0 010 2.418l-9.77 9.77c-.414.41-.882.5-1.207.5s-.792-.09-1.207-.504l-1.734-1.734c-8.95-8.946-22.766-11.407-34.383-6.121a80.459 80.459 0 01-5.152 2.136c-11.895 4.45-19.887 15.946-19.887 28.602v2.45c0 .944-.77 1.71-1.71 1.71h-13.813a1.713 1.713 0 01-1.711-1.71v-2.45c0-12.656-7.992-24.153-19.887-28.602a84.143 84.143 0 01-5.152-2.133 30.722 30.722 0 00-12.75-2.761c-7.973 0-15.828 3.074-21.63 8.879l-1.734 1.734a1.71 1.71 0 01-2.417 0l-9.77-9.766a1.71 1.71 0 010-2.418l1.734-1.734c8.95-8.95 11.407-22.766 6.121-34.383a83.135 83.135 0 01-2.132-5.152c-4.453-11.895-15.946-19.887-28.606-19.887h-2.45c-.94 0-1.706-.77-1.706-1.71v-13.813c0-.942.766-1.711 1.707-1.711h2.45c12.66 0 24.152-7.992 28.605-19.887a80.799 80.799 0 012.132-5.152c5.286-11.617 2.829-25.434-6.12-34.383l-1.735-1.734a1.71 1.71 0 010-2.418l9.77-9.766a1.71 1.71 0 012.417 0l1.735 1.734c8.945 8.946 22.765 11.407 34.379 6.118a85.175 85.175 0 015.152-2.133c11.899-4.45 19.89-15.946 19.89-28.602v-2.45c0-.94.766-1.71 1.708-1.71h13.812c.946 0 1.711.77 1.711 1.71v2.45c0 12.656 7.992 24.152 19.887 28.606a80.41 80.41 0 015.152 2.132c11.614 5.286 25.434 2.825 34.383-6.12l1.734-1.735c.415-.414.887-.5 1.207-.5.325 0 .797.086 1.211.5l9.77 9.77c.664.664.664 1.75-.004 2.417l-1.73 1.73c-8.95 8.95-11.41 22.767-6.125 34.388a80.148 80.148 0 012.132 5.148c4.454 11.899 15.95 19.89 28.606 19.89h2.45c.944 0 1.71.766 1.71 1.708zm0 0"/><path d="M318.5 61c-34.738 0-63 28.262-63 63s28.262 63 63 63 63-28.262 63-63-28.262-63-63-63zm0 111c-26.469 0-48-21.531-48-48s21.531-48 48-48 48 21.531 48 48-21.531 48-48 48zm-196 146h165c4.14 0 7.5-3.355 7.5-7.5s-3.36-7.5-7.5-7.5h-165c-4.14 0-7.5 3.355-7.5 7.5s3.36 7.5 7.5 7.5zm0-30h146c4.14 0 7.5-3.355 7.5-7.5s-3.36-7.5-7.5-7.5h-146c-4.14 0-7.5 3.355-7.5 7.5s3.36 7.5 7.5 7.5zm0-30h63c4.14 0 7.5-3.355 7.5-7.5s-3.36-7.5-7.5-7.5h-63c-4.14 0-7.5 3.355-7.5 7.5s3.36 7.5 7.5 7.5zm126 0c4.14 0 7.5-3.355 7.5-7.5s-3.36-7.5-7.5-7.5h-33c-4.14 0-7.5 3.355-7.5 7.5s3.36 7.5 7.5 7.5zM128 228h44c6.895 0 12.5-5.605 12.5-12.5v-54c0-6.895-5.605-12.5-12.5-12.5h-44c-6.895 0-12.5 5.605-12.5 12.5v54c0 6.895 5.605 12.5 12.5 12.5zm2.5-64h39v49h-39zm0 0"/><path d="M318.5 91c-18.195 0-33 14.805-33 33s14.805 33 33 33 33-14.805 33-33-14.805-33-33-33zm0 51c-9.926 0-18-8.074-18-18s8.074-18 18-18 18 8.074 18 18-8.074 18-18 18zm0 0"/></symbol><symbol viewBox="0 0 512.001 512.001" id="list" xmlns="http://www.w3.org/2000/svg"><path d="M103.984 200.694H27.5c-15.163 0-27.5 12.337-27.5 27.5v55.614c0 15.163 12.337 27.5 27.5 27.5h76.484c15.163 0 27.5-12.337 27.5-27.5v-55.614c0-15.163-12.336-27.5-27.5-27.5zm12.5 83.114c0 6.893-5.607 12.5-12.5 12.5H27.5c-6.893 0-12.5-5.607-12.5-12.5v-55.614c0-6.893 5.607-12.5 12.5-12.5h76.484c6.893 0 12.5 5.607 12.5 12.5v55.614zm159.883 127.725h100c4.143 0 7.5-3.357 7.5-7.5s-3.357-7.5-7.5-7.5h-100a7.5 7.5 0 000 15zM104.57 23.541h-.538l2.54-5.714a7.5 7.5 0 00-13.707-6.091l-33.294 74.91-11.854-17.782a7.5 7.5 0 00-12.48 8.32l19.414 29.12a7.498 7.498 0 0013.094-1.114l29.622-66.65 7.203.001c6.569 0 11.914 5.345 11.914 11.914v56.786c0 6.569-5.345 11.914-11.914 11.914l-77.656-.001c-6.569 0-11.914-5.345-11.914-11.914V50.454c0-6.569 5.345-11.914 11.914-11.914h38.343c4.143 0 7.5-3.357 7.5-7.5s-3.357-7.5-7.5-7.5H26.914C12.073 23.54 0 35.613 0 50.454v56.786c0 14.841 12.073 26.914 26.914 26.914l77.656.001c14.841 0 26.914-12.073 26.914-26.914V50.455c0-14.841-12.073-26.914-26.914-26.914zm349.453 402.113H276.367c-4.143 0-7.5 3.357-7.5 7.5s3.357 7.5 7.5 7.5h177.656c4.143 0 7.5-3.357 7.5-7.5s-3.356-7.5-7.5-7.5zm-29.12 29.121H276.367c-4.143 0-7.5 3.357-7.5 7.5s3.357 7.5 7.5 7.5h148.535c4.143 0 7.5-3.357 7.5-7.5s-3.356-7.5-7.499-7.5zm-320.332-76.927h-.538l2.54-5.714a7.498 7.498 0 00-3.808-9.899 7.499 7.499 0 00-9.899 3.808l-33.294 74.91-11.854-17.782a7.5 7.5 0 00-12.48 8.32l19.414 29.121a7.498 7.498 0 0013.094-1.114l29.631-66.67c.133.007.264.02.398.02l6.796.001c6.569 0 11.914 5.345 11.914 11.914v56.786c0 6.569-5.345 11.914-11.914 11.914l-77.656-.001c-6.569 0-11.914-5.345-11.914-11.914v-56.787c0-6.569 5.345-11.914 11.914-11.914h38.343c4.143 0 7.5-3.357 7.5-7.5s-3.357-7.5-7.5-7.5H26.914C12.073 377.847 0 389.92 0 404.761v56.786c0 14.841 12.073 26.914 26.914 26.914l77.656.001c14.841 0 26.914-12.073 26.914-26.914v-56.786c0-14.841-12.073-26.914-26.913-26.914zm349.452 18.685h-48.535c-4.143 0-7.5 3.357-7.5 7.5s3.357 7.5 7.5 7.5h48.535c4.143 0 7.5-3.357 7.5-7.5s-3.356-7.5-7.5-7.5z"/><path d="M90.495 248.501h-.971c-4.143 0-7.5 3.357-7.5 7.5s3.357 7.5 7.5 7.5h.971c4.143 0 7.5-3.357 7.5-7.5s-3.357-7.5-7.5-7.5zm-48.534 0h-.971c-4.143 0-7.5 3.357-7.5 7.5s3.357 7.5 7.5 7.5h.971c4.143 0 7.5-3.357 7.5-7.5s-3.357-7.5-7.5-7.5zm24.753 0h-.971c-4.143 0-7.5 3.357-7.5 7.5s3.357 7.5 7.5 7.5h.971a7.5 7.5 0 000-15zm209.653-133.032h119.414c4.143 0 7.5-3.357 7.5-7.5s-3.357-7.5-7.5-7.5H276.367a7.5 7.5 0 000 15zM454.023 219.38h-48.535c-4.143 0-7.5 3.357-7.5 7.5s3.357 7.5 7.5 7.5h48.535c4.143 0 7.5-3.357 7.5-7.5s-3.356-7.5-7.5-7.5zm0-177.153H276.367c-4.143 0-7.5 3.357-7.5 7.5s3.357 7.5 7.5 7.5h177.656c4.143 0 7.5-3.357 7.5-7.5s-3.356-7.5-7.5-7.5zm7.5 36.621c0-4.143-3.357-7.5-7.5-7.5H347.247c-4.143 0-7.5 3.357-7.5 7.5s3.357 7.5 7.5 7.5h106.777a7.499 7.499 0 007.499-7.5z"/><path d="M485.086.001h-31.063c-4.143 0-7.5 3.357-7.5 7.5s3.357 7.5 7.5 7.5h31.063c6.569 0 11.914 5.345 11.914 11.914V130.78c0 6.569-5.345 11.914-11.914 11.914H230.763a11.865 11.865 0 01-9.229-4.38l-48.545-59.467 48.546-59.468A11.866 11.866 0 01230.764 15h190.743c4.143 0 7.5-3.357 7.5-7.5s-3.357-7.5-7.5-7.5H230.763a26.808 26.808 0 00-20.849 9.894l-49.912 61.141c-3.694 4.527-3.694 11.098.001 15.625l49.91 61.14a26.81 26.81 0 0020.85 9.895h254.324c14.841 0 26.914-12.073 26.914-26.914V26.915C512 12.074 499.927.001 485.086.001z"/><path d="M276.367 86.348h41.758c4.143 0 7.5-3.357 7.5-7.5s-3.357-7.5-7.5-7.5h-41.758a7.5 7.5 0 000 15zm208.719 90.804H230.762a26.81 26.81 0 00-20.849 9.894l-49.912 61.141c-3.694 4.527-3.694 11.098.001 15.625l49.91 61.14a26.81 26.81 0 0020.85 9.895h254.324c14.841 0 26.914-12.073 26.914-26.914V204.068c0-14.84-12.073-26.914-26.914-26.916zM497 204.068v103.866c0 6.569-5.345 11.914-11.914 11.914H230.761a11.866 11.866 0 01-9.229-4.38l-48.545-59.467 48.545-59.467.001-.001a11.867 11.867 0 019.229-4.379h254.324c6.57 0 11.914 5.345 11.914 11.914z"/><path d="M276.367 234.38h100c4.143 0 7.5-3.357 7.5-7.5s-3.357-7.5-7.5-7.5h-100a7.5 7.5 0 000 15zm177.656 14.121H276.367c-4.143 0-7.5 3.357-7.5 7.5s3.357 7.5 7.5 7.5h177.656c4.143 0 7.5-3.357 7.5-7.5s-3.356-7.5-7.5-7.5zm31.063 105.805H230.762a26.81 26.81 0 00-20.849 9.894l-49.912 61.141c-3.694 4.527-3.694 11.098.001 15.625l49.91 61.14a26.81 26.81 0 0020.85 9.895h254.324c14.841 0 26.914-12.073 26.914-26.914V381.222c0-14.841-12.073-26.914-26.914-26.916zM497 381.222v103.866c0 6.569-5.345 11.914-11.914 11.914H230.761a11.866 11.866 0 01-9.229-4.38l-48.545-59.467 48.545-59.467.001-.001a11.867 11.867 0 019.229-4.379h254.324c6.57 0 11.914 5.345 11.914 11.914zm-149.753-103.6h-70.879c-4.143 0-7.5 3.357-7.5 7.5s3.357 7.5 7.5 7.5h70.879c4.143 0 7.5-3.357 7.5-7.5s-3.357-7.5-7.5-7.5z"/></symbol><symbol viewBox="0 0 512 512" id="search" xmlns="http://www.w3.org/2000/svg"><path d="M310 190c-5.52 0-10 4.48-10 10s4.48 10 10 10 10-4.48 10-10-4.48-10-10-10z"/><path d="M500.281 443.719l-133.48-133.48C388.546 277.485 400 239.555 400 200 400 89.72 310.28 0 200 0S0 89.72 0 200s89.72 200 200 200c39.556 0 77.486-11.455 110.239-33.198l36.895 36.895.016.016 96.568 96.568C451.276 507.838 461.319 512 472 512c10.681 0 20.724-4.162 28.278-11.716C507.837 492.731 512 482.687 512 472s-4.163-20.731-11.719-28.281zm-194.745-97.992l-.002.002C274.667 368.149 238.175 380 200 380c-99.252 0-180-80.748-180-180S100.748 20 200 20s180 80.748 180 180c0 38.175-11.851 74.667-34.272 105.535a180.872 180.872 0 01-40.192 40.192zm20.98 9.066a200.674 200.674 0 0028.277-28.277l28.371 28.371a242.733 242.733 0 01-28.277 28.277l-28.371-28.371zm159.623 131.346c-3.78 3.78-8.801 5.861-14.139 5.861s-10.359-2.081-14.139-5.861l-88.795-88.795a262.775 262.775 0 0028.277-28.277l88.798 88.798A19.846 19.846 0 01492 472a19.856 19.856 0 01-5.861 14.139z"/><path d="M200 40c-88.225 0-160 71.775-160 160s71.775 160 160 160 160-71.775 160-160S288.225 40 200 40zm0 300c-77.196 0-140-62.804-140-140S122.804 60 200 60s140 62.804 140 140-62.804 140-140 140z"/><path d="M312.065 157.073c-8.611-22.412-23.604-41.574-43.36-55.413C248.479 87.49 224.721 80 200 80c-5.522 0-10 4.478-10 10s4.478 10 10 10c41.099 0 78.631 25.818 93.396 64.247a10.003 10.003 0 009.337 6.416 9.978 9.978 0 003.584-.668c5.155-1.981 7.729-7.766 5.748-12.922z"/></symbol><symbol viewBox="0 0 512 512" id="truck" xmlns="http://www.w3.org/2000/svg"><path d="M504.163 355.304h-54.748c8.355-8.514 13.834-19.867 14.846-32.463h19.696c10.082 0 18.286-8.202 18.286-18.286v-67.769c0-7.458-3.396-17.566-7.899-23.509l-49.832-65.79c-4.938-6.518-14.828-11.433-23.006-11.433h-10.861a7.837 7.837 0 00-7.837 7.837 7.837 7.837 0 007.837 7.837h10.862c3.307 0 8.514 2.588 10.512 5.223l10.185 13.446h-59.31c-7.202 0-13.061 5.86-13.061 13.061v29.138c0 7.202 5.859 13.061 13.061 13.061h100.685c1.683 3.466 2.992 8.098 2.992 11.13v7.282h-9.596c-7.203 0-13.061 5.859-13.061 13.061v24.535c0 7.202 5.859 13.061 13.061 13.061h9.596v9.829c0 1.416-1.196 2.612-2.612 2.612h-20.784c-5.23-23.386-26.113-40.92-51.022-40.92s-45.793 17.534-51.022 40.92h-9.426V151.725h28.641a7.837 7.837 0 007.837-7.837 7.837 7.837 0 00-7.837-7.837h-28.641v-24.967c0-10.082-8.203-18.286-18.286-18.286h-73.956l-6.512-11.279c-4.268-7.393-13.924-12.967-22.46-12.967H70.743c-.61 0-1.218.071-1.812.212A26.347 26.347 0 0048.66 92.799H34.786c-10.082 0-18.286 8.203-18.286 18.286v161.768c-4.017 2.23-6.743 6.512-6.743 11.423v25.503c0 7.203 5.859 13.061 13.061 13.061h51.929c1.011 12.597 6.491 23.95 14.846 32.463H7.837A7.837 7.837 0 000 363.14a7.837 7.837 0 007.837 7.837h496.327a7.837 7.837 0 10-.001-15.673zm-95.401-145.322h-23.257v-23.914h23.257v23.914zm15.672 0v-23.914h29.639l18.112 23.914h-47.751zm55.151 69.069V259.74h6.984v19.311h-6.984zM71.786 84.227h158.702c2.935 0 7.42 2.589 8.887 5.13l9.205 15.942h-20.791c-4.329 0-7.837 3.509-7.837 7.837s3.508 7.837 7.837 7.837h29.841l12.468 21.595H118.943c-5.953 0-10.796-4.844-10.796-10.798s4.843-10.797 10.796-10.797h79.588c4.329 0 7.837-3.509 7.837-7.837s-3.508-7.837-7.837-7.837H75.057c-5.953 0-10.796-4.843-10.796-10.797 0-4.746 3.057-8.864 7.525-10.275zM54.38 307.168H25.431V286.89H54.38v20.278zm21.455 0h-5.781V286.89h15.235a52.18 52.18 0 00-9.454 20.278zm-18.843-35.953H32.174V111.086c0-1.416 1.195-2.612 2.612-2.612h17.803c4.678 7.498 12.999 12.5 22.468 12.5h19.728a26.3 26.3 0 00-2.311 10.797c0 14.596 11.874 26.471 26.469 26.471h24.798a26.3 26.3 0 00-2.311 10.797c0 14.596 11.875 26.471 26.471 26.471h20.181c4.329 0 7.837-3.509 7.837-7.837s-3.508-7.837-7.837-7.837h-20.181c-5.954 0-10.798-4.844-10.798-10.798s4.844-10.797 10.798-10.797h111.244l12.468 21.595h-73.229a7.837 7.837 0 00-7.837 7.837 7.837 7.837 0 007.837 7.837h81.577c4.183 0 7.813-1.962 9.709-5.249s1.781-7.41-.31-11.032l-18.904-32.744-21.517-37.268-.43-.745h64.906c1.416 0 2.612 1.196 2.612 2.612v160.13H149.06a51.905 51.905 0 00-22.203-4.969 51.913 51.913 0 00-22.204 4.969H56.992zm69.865 84.089c-20.194 0-36.623-16.459-36.623-36.692 0-20.232 16.429-36.692 36.623-36.692 20.193 0 36.621 16.46 36.621 36.692s-16.428 36.692-36.621 36.692zm37.263 0c8.361-8.513 13.834-19.866 14.845-32.463h105.247c4.329 0 7.837-3.509 7.837-7.837s-3.508-7.837-7.837-7.837H177.881a52.214 52.214 0 00-9.457-20.278h167.605v20.278H313.47c-4.329 0-7.837 3.509-7.837 7.837s3.508 7.837 7.837 7.837h46.571c1.011 12.597 6.491 23.95 14.846 32.463H164.12zm248.031 0c-20.194 0-36.623-16.459-36.623-36.692 0-20.232 16.429-36.692 36.623-36.692s36.623 16.46 36.623 36.692-16.429 36.692-36.623 36.692zm92.012 36.371H158.825a7.837 7.837 0 00-7.837 7.837 7.837 7.837 0 007.837 7.837h345.339a7.837 7.837 0 10-.001-15.674zm-385.045 0H7.837A7.837 7.837 0 000 399.512a7.837 7.837 0 007.837 7.837h111.282a7.837 7.837 0 10-.001-15.674zm385.045 36.098h-91.429a7.837 7.837 0 00-7.837 7.837 7.837 7.837 0 007.837 7.837h91.429A7.837 7.837 0 00512 435.61a7.836 7.836 0 00-7.837-7.837zm-128 0H7.837A7.836 7.836 0 000 435.61a7.837 7.837 0 007.837 7.837h368.327a7.837 7.837 0 10-.001-15.674z"/><path d="M51.513 116.297c-1.452-1.452-3.469-2.288-5.538-2.288s-4.086.836-5.538 2.288a7.889 7.889 0 00-2.299 5.548 7.846 7.846 0 007.837 7.837 7.865 7.865 0 005.538-2.299 7.885 7.885 0 002.299-5.538 7.89 7.89 0 00-2.299-5.548zm75.344 179.948c-12.321 0-22.345 10.034-22.345 22.367s10.024 22.367 22.345 22.367 22.345-10.034 22.345-22.367-10.024-22.367-22.345-22.367zm0 29.061c-3.679 0-6.672-3.003-6.672-6.694s2.993-6.694 6.672-6.694 6.672 3.003 6.672 6.694-2.993 6.694-6.672 6.694zm285.294-29.061c-12.321 0-22.345 10.034-22.345 22.367s10.024 22.367 22.345 22.367 22.345-10.034 22.345-22.367-10.024-22.367-22.345-22.367zm0 29.061c-3.679 0-6.672-3.003-6.672-6.694s2.993-6.694 6.672-6.694 6.672 3.003 6.672 6.694-2.993 6.694-6.672 6.694zm-17.182-86.997h-17.301c-4.329 0-7.837 3.509-7.837 7.837s3.508 7.837 7.837 7.837h17.301c4.329 0 7.837-3.509 7.837-7.837s-3.508-7.837-7.837-7.837zM74.188 208.457H49.11c-6.05 0-10.971 4.921-10.971 10.971v33.437c0 6.05 4.921 10.971 10.971 10.971h25.078c6.05 0 10.971-4.921 10.971-10.971v-33.437c0-6.049-4.921-10.971-10.971-10.971zm-4.702 39.706H53.812V224.13h15.673v24.033zm258.925-131.866a7.882 7.882 0 00-5.538-2.288 7.882 7.882 0 00-5.538 2.288 7.889 7.889 0 00-2.299 5.548c0 2.058.836 4.075 2.299 5.538 1.452 1.463 3.479 2.299 5.538 2.299s4.074-.836 5.538-2.299a7.865 7.865 0 002.299-5.538 7.89 7.89 0 00-2.299-5.548zm0 136.84a7.846 7.846 0 00-5.538-2.299 7.846 7.846 0 00-7.837 7.837c0 2.058.836 4.075 2.299 5.538 1.452 1.463 3.479 2.299 5.538 2.299s4.074-.836 5.538-2.299a7.864 7.864 0 002.299-5.538 7.846 7.846 0 00-2.299-5.538z"/></symbol></svg>